<?xml version="1.0" encoding="utf-8"?>
<!-- Generator: Adobe Illustrator 22.1.0, SVG Export Plug-In . SVG Version: 6.00 Build 0)  -->
<svg version="1.1" id="Layer_1" xmlns="http://www.w3.org/2000/svg" xmlns:xlink="http://www.w3.org/1999/xlink" x="0px" y="0px"
	 viewBox="0 0 141.2 151.1" style="enable-background:new 0 0 141.2 151.1;" xml:space="preserve">
<style type="text/css">
	.st0{fill:#CC33CC;}
</style>
<g>
	<path class="st0" d="M127.3,74.5c0.2-0.7,0.3-1.3,0.3-2c0-3.1-2-5.8-4.8-6.5c-0.6-0.1-1-0.5-1.3-1c-0.4-0.7-0.5-1.5-0.3-2.2
		l0.5-1.9c0.5-1.9,0.2-3.9-0.8-5.5c-0.9-1.5-2.4-2.5-4.1-2.9l-3.8-0.8c-0.8-0.1-1.4-0.8-1.7-1.7l-0.3-1.2c-0.8-2.8-3.2-4.7-6-4.7
		l-15.7,0.4L75.4,22.8c3-1.4,5.1-4.4,5.1-8c0-4.9-3.9-8.8-8.8-8.8c-4.9,0-8.8,3.9-8.8,8.8c0,3.5,2.1,6.5,5.1,7.9L54.3,44.5
		l-15.8-0.4c-2.7,0-5.2,1.9-6,4.7L32.3,50c-0.3,0.9-0.9,1.5-1.7,1.7l-3.8,0.8c-1.7,0.3-3.1,1.4-4,2.9c-1,1.6-1.3,3.6-0.8,5.5
		l0.5,1.9c0.2,0.8,0.1,1.6-0.3,2.2c-0.3,0.5-0.8,0.9-1.3,1C18,66.7,16,69.4,16,72.5c0,0.7,0.1,1.3,0.3,2l0.9,3.1
		c0.2,0.6,0.2,1.2,0,1.7c-0.3,0.9-0.4,1.9-0.4,2.8c0,4.1,2.6,7.6,6.4,8.6l0.4,0.1c0,0.5,0,1,0,1.4c0,27.2,21.6,49.3,48.2,49.3
		c26.6,0,48.2-22.1,48.2-49.3c0-0.5,0-0.9,0-1.4l0.7-0.1c3.7-1,6.3-4.5,6.3-8.6c0-0.9-0.1-1.9-0.4-2.9c-0.2-0.6-0.2-1.1,0-1.7
		L127.3,74.5z M71.7,137.3c-24.3,0-44.1-20.3-44.1-45.2c0-20.8,13.8-38.4,32.6-43.6c0.1,0,0.2,0,0.3-0.1c3.6-1,7.4-1.5,11.3-1.5
		c24.3,0,44.1,20.2,44.1,45.1C115.8,117.1,96,137.3,71.7,137.3z"/>
	<circle class="st0" cx="71.8" cy="96.7" r="11.4"/>
	<path class="st0" d="M50.3,69.1c-4.7,0-8.5,4.6-8.5,10.1c0,2.8,1,5.4,2.6,7.2c0.1,0.2,0.3,0.4,0.6,0.6c1.5,1.4,3.3,2.3,5.4,2.3
		c4.2,0,7.7-3.6,8.4-8.4v-0.2c0.1-0.5,0.1-1,0.1-1.6C58.8,73.6,55,69.1,50.3,69.1z M50.3,85.2c-0.7,0-1.4-0.2-2-0.7
		c0.6-2.1,2.2-3.5,4.1-3.5c0.8,0,1.4,0.2,1.9,0.6C53.6,83.7,52.1,85.2,50.3,85.2z"/>
	<path class="st0" d="M93.3,69.1c-4.7,0-8.5,4.6-8.5,10.1c0,2.9,1,5.4,2.6,7.2c0.1,0.2,0.3,0.4,0.5,0.5c1.5,1.5,3.3,2.4,5.4,2.4
		c4.2,0,7.6-3.6,8.3-8.3c0-0.1,0-0.1,0-0.2c0.1-0.5,0.1-1,0.1-1.6C101.8,73.6,97.9,69.1,93.3,69.1z M93.3,85.2c-0.7,0-1.4-0.2-2-0.7
		c0.6-2.1,2.2-3.5,4.1-3.5c0.8,0,1.4,0.2,1.9,0.6C96.6,83.7,95,85.2,93.3,85.2z"/>
	<path class="st0" d="M84.9,69.3c0.6,0,1.3-0.3,1.7-0.9c3.7-5.2,10.2-1.6,10.5-1.4c1,0.6,2.2,0.2,2.8-0.7c0.6-1,0.2-2.2-0.7-2.8
		c-3.5-2-11.2-4.1-15.9,2.6c-0.6,0.9-0.4,2.2,0.5,2.9C84.1,69.1,84.5,69.3,84.9,69.3z"/>
	<path class="st0" d="M46.5,67c0.3-0.2,6.8-3.9,10.5,1.4c0.4,0.6,1,0.9,1.7,0.9c0.4,0,0.8-0.1,1.2-0.4c0.9-0.6,1.2-1.9,0.5-2.9
		c-4.7-6.7-12.5-4.6-15.9-2.6c-1,0.6-1.3,1.8-0.7,2.8C44.2,67.2,45.5,67.6,46.5,67z"/>
	<path class="st0" d="M88.2,129.9c-0.4,0.5-1,0.7-1.6,0.7c-0.2,0-0.4,0-0.6-0.1c-11.2-3.7-20.5-3.7-28.4-0.1
		c-0.6,0.3-1.4,0.2-1.9-0.1c-0.6-0.3-0.9-1-1-1.7c-0.1-4.7,1.3-8.8,4-11.6c2.4-2.5,5.7-3.8,9.6-3.8c11.5,0,18.3,11,20.1,14.3
		C88.8,128.4,88.8,129.3,88.2,129.9z"/>
</g>
</svg>
