<?xml version="1.0" encoding="utf-8"?>
<!-- Generator: Adobe Illustrator 22.1.0, SVG Export Plug-In . SVG Version: 6.00 Build 0)  -->
<svg version="1.1" id="Layer_1" xmlns="http://www.w3.org/2000/svg" xmlns:xlink="http://www.w3.org/1999/xlink" x="0px" y="0px"
	 viewBox="0 0 100 70.8" style="enable-background:new 0 0 100 70.8;" xml:space="preserve">
<style type="text/css">
	.st0{fill:#00FFFF;}
</style>
<path class="st0" d="M56.3,2c-1.6,0.6-2.8,1.9-3.5,3.7c-1.2,0-2.4,0.4-3.5,1.2c-2.2,1.6-3.6,4.4-3.6,7.3v2.4c-3.3,0.8-6.2,3.6-6.2,8
	c0,0.4-0.1,1.4-0.2,2.8c-0.9,9.3-1.4,18.5,0.4,23c0.6,1.5,1.5,3,2.5,4.8c2.5,4.6,5.7,10.2,5.7,17.3v29.1h4.2V72.5
	c0-8.2-3.6-14.6-6.2-19.3c-0.9-1.7-1.7-3.1-2.2-4.3c-1.7-4.1-0.6-16-0.1-21c0.2-1.8,0.2-2.7,0.2-3.2c0-2,1-3.1,2.1-3.6v16
	c0,1.2,0.9,2.1,2.1,2.1c1.2,0,2.1-0.9,2.1-2.1V14.2c0-1.6,0.7-3.1,1.8-3.9c0.1-0.1,0.2-0.1,0.3-0.2V35c0,1.2,0.9,2.1,2.1,2.1
	s2.1-0.9,2.1-2.1V10c0-2.6,0.9-3.9,1.7-4.2c0.4-0.2,1-0.1,1.5,0.2c-0.7,1-1.1,2.4-1.1,4v22.9c0,1.1,0.9,2.1,2.1,2.1
	c1.2,0,2.1-0.9,2.1-2.1V10c0-1.9,1.1-2.6,2.1-2.6c0.5,0,1,0.2,1.4,0.6c0.5,0.5,0.7,1.2,0.7,2v22.9c0,2.4,2.5,12.8,7.5,12.8
	c2.8,0,2.8-3.1,2.8-7.7c0-1.1,0-2.1,0.1-2.8c0.1-0.6-0.1-1.2-0.3-2.3c-0.4-1.9-1.1-6,0.1-7.5c0.1-0.1,0.4-0.5,1.2-0.7
	c1.1,2.8,3.1,10.9,3.1,12.4c0,7.4-0.7,13.3-1.9,15.7c-2,4.2-6.2,18.5-6.4,19.1c-0.1,0.2,0,0.4,0,0.6l0,0v29.1h4.2V72.8
	c0.6-2,4.3-14.5,6-18.1c2-4.1,2.3-12.8,2.3-17.6c0-0.2-2.3-16.7-6.2-16.7c-2.4,0-4.2,0.8-5.4,2.3c-2.5,3.1-1.6,8-1,11
	c0.1,0.6,0.2,1,0.2,1.1c-0.1,0.8-0.1,1.9-0.1,3.2c0,0.4,0,1,0,1.5c-1-2-2-5-2-6.6V10c0-4.4-3.1-6.8-6.2-6.8c-0.5,0-1.1,0.1-1.6,0.2
	C60.8,1.7,58.4,1.1,56.3,2z"/>
<path class="st0" d="M43.6,80.8c0,0.4-0.1,0.9-0.4,1.2c-0.7,0.9-2,1.1-2.9,0.4c-3.2-2.4-5-6-5-10c0-4,1.8-7.6,5-10
	c0.9-0.7,2.2-0.5,2.9,0.4c0.7,0.9,0.5,2.2-0.4,2.9c-2.1,1.6-3.3,4-3.3,6.7c0,2.6,1.2,5.1,3.3,6.7C43.4,79.5,43.6,80.2,43.6,80.8z"/>
<path class="st0" d="M37.4,55.8c0,0.6-0.3,1.3-0.8,1.7c-4.8,3.6-7.5,9-7.5,15c0,5.9,2.7,11.4,7.5,15c0.9,0.7,1.1,2,0.4,2.9
	c-0.7,0.9-2,1.1-2.9,0.4c-5.8-4.4-9.2-11.1-9.2-18.3c0-7.3,3.3-13.9,9.2-18.3c0.9-0.7,2.2-0.5,2.9,0.4
	C37.3,54.9,37.4,55.4,37.4,55.8z"/>
<path class="st0" d="M31.2,47.5c0,0.6-0.3,1.3-0.8,1.7c-7.5,5.5-11.7,14-11.7,23.3c0,9.2,4.2,17.7,11.7,23.3c0.9,0.7,1.1,2,0.4,2.9
	s-2,1.1-2.9,0.4C19.4,92.7,14.5,83,14.5,72.5c0-10.6,4.9-20.3,13.3-26.6c0.9-0.7,2.2-0.5,2.9,0.4C31,46.6,31.2,47,31.2,47.5z"/>
<path class="st0" d="M81.1,72.5c0,2.3-1.9,4.2-4.2,4.2H47.8c-2.3,0-4.2-1.9-4.2-4.2s1.9-4.2,4.2-4.2h29.1
	C79.2,68.3,81.1,70.2,81.1,72.5z"/>
</svg>
